<mxfile host="app.diagrams.net" modified="2023-11-06T13:38:28.487Z" agent="Mozilla/5.0 (Windows NT 10.0; Win64; x64) AppleWebKit/537.36 (KHTML, like Gecko) Chrome/119.0.0.0 Safari/537.36" etag="7b75fl1SCZ3J0Vj5PxPA" version="22.0.8" type="github">
  <diagram name="第 1 页" id="ab9fbh1dUWwFUqO3Xtwl">
    <mxGraphModel dx="2074" dy="1106" grid="1" gridSize="10" guides="1" tooltips="1" connect="1" arrows="1" fold="1" page="1" pageScale="1" pageWidth="827" pageHeight="1169" math="0" shadow="0">
      <root>
        <mxCell id="0" />
        <mxCell id="1" parent="0" />
        <mxCell id="1bnmUAAr6jeucHgLk03l-3" value="" style="whiteSpace=wrap;html=1;aspect=fixed;" vertex="1" parent="1">
          <mxGeometry x="10" y="260" width="840" height="840" as="geometry" />
        </mxCell>
        <mxCell id="1bnmUAAr6jeucHgLk03l-4" value="" style="rounded=0;whiteSpace=wrap;html=1;" vertex="1" parent="1">
          <mxGeometry x="130" y="350" width="610" height="180" as="geometry" />
        </mxCell>
        <mxCell id="1bnmUAAr6jeucHgLk03l-5" value="" style="rounded=0;whiteSpace=wrap;html=1;" vertex="1" parent="1">
          <mxGeometry x="130" y="610" width="620" height="130" as="geometry" />
        </mxCell>
        <mxCell id="1bnmUAAr6jeucHgLk03l-6" value="" style="rounded=0;whiteSpace=wrap;html=1;" vertex="1" parent="1">
          <mxGeometry x="130" y="822.5" width="620" height="260" as="geometry" />
        </mxCell>
        <mxCell id="1bnmUAAr6jeucHgLk03l-7" value="战略" style="text;html=1;strokeColor=none;fillColor=none;align=center;verticalAlign=middle;whiteSpace=wrap;rounded=0;" vertex="1" parent="1">
          <mxGeometry x="384" y="350" width="60" height="30" as="geometry" />
        </mxCell>
        <mxCell id="1bnmUAAr6jeucHgLk03l-8" value="Driver: 国家政策" style="rounded=0;whiteSpace=wrap;html=1;" vertex="1" parent="1">
          <mxGeometry x="150" y="380" width="120" height="30" as="geometry" />
        </mxCell>
        <mxCell id="1bnmUAAr6jeucHgLk03l-9" value="Driver: 企业战略" style="rounded=0;whiteSpace=wrap;html=1;" vertex="1" parent="1">
          <mxGeometry x="150" y="420" width="120" height="30" as="geometry" />
        </mxCell>
        <mxCell id="1bnmUAAr6jeucHgLk03l-10" value="Driver: 对标友商" style="rounded=0;whiteSpace=wrap;html=1;" vertex="1" parent="1">
          <mxGeometry x="150" y="460" width="120" height="30" as="geometry" />
        </mxCell>
        <mxCell id="1bnmUAAr6jeucHgLk03l-14" value="" style="shape=offPageConnector;whiteSpace=wrap;html=1;rotation=-90;" vertex="1" parent="1">
          <mxGeometry x="326.5" y="357.5" width="50" height="100" as="geometry" />
        </mxCell>
        <mxCell id="1bnmUAAr6jeucHgLk03l-15" value="" style="shape=offPageConnector;whiteSpace=wrap;html=1;rotation=-90;" vertex="1" parent="1">
          <mxGeometry x="324.8" y="410.28" width="49.54" height="98.99" as="geometry" />
        </mxCell>
        <mxCell id="1bnmUAAr6jeucHgLk03l-16" value="内部分析" style="text;html=1;strokeColor=none;fillColor=none;align=center;verticalAlign=middle;whiteSpace=wrap;rounded=0;" vertex="1" parent="1">
          <mxGeometry x="310" y="392.5" width="60" height="30" as="geometry" />
        </mxCell>
        <mxCell id="1bnmUAAr6jeucHgLk03l-17" value="外部分析" style="text;html=1;strokeColor=none;fillColor=none;align=center;verticalAlign=middle;whiteSpace=wrap;rounded=0;" vertex="1" parent="1">
          <mxGeometry x="310" y="444.77" width="60" height="30" as="geometry" />
        </mxCell>
        <mxCell id="1bnmUAAr6jeucHgLk03l-18" value="" style="shape=offPageConnector;whiteSpace=wrap;html=1;rotation=-90;" vertex="1" parent="1">
          <mxGeometry x="435" y="380" width="50" height="105" as="geometry" />
        </mxCell>
        <mxCell id="1bnmUAAr6jeucHgLk03l-19" value="战略决策" style="text;html=1;strokeColor=none;fillColor=none;align=center;verticalAlign=middle;whiteSpace=wrap;rounded=0;" vertex="1" parent="1">
          <mxGeometry x="414" y="420" width="60" height="30" as="geometry" />
        </mxCell>
        <mxCell id="1bnmUAAr6jeucHgLk03l-20" value="产品战略" style="rounded=0;whiteSpace=wrap;html=1;" vertex="1" parent="1">
          <mxGeometry x="550" y="358" width="80" height="42.5" as="geometry" />
        </mxCell>
        <mxCell id="1bnmUAAr6jeucHgLk03l-21" value="渠道战略" style="rounded=0;whiteSpace=wrap;html=1;" vertex="1" parent="1">
          <mxGeometry x="640" y="358" width="80" height="42" as="geometry" />
        </mxCell>
        <mxCell id="1bnmUAAr6jeucHgLk03l-22" value="服务战略" style="rounded=0;whiteSpace=wrap;html=1;" vertex="1" parent="1">
          <mxGeometry x="550" y="410" width="80" height="40" as="geometry" />
        </mxCell>
        <mxCell id="1bnmUAAr6jeucHgLk03l-23" value="市场战略" style="rounded=0;whiteSpace=wrap;html=1;" vertex="1" parent="1">
          <mxGeometry x="640" y="410" width="80" height="40" as="geometry" />
        </mxCell>
        <mxCell id="1bnmUAAr6jeucHgLk03l-24" value="合作战略" style="rounded=0;whiteSpace=wrap;html=1;" vertex="1" parent="1">
          <mxGeometry x="550" y="460" width="80" height="40" as="geometry" />
        </mxCell>
        <mxCell id="1bnmUAAr6jeucHgLk03l-25" value="竞争战略" style="rounded=0;whiteSpace=wrap;html=1;" vertex="1" parent="1">
          <mxGeometry x="640" y="460" width="80" height="40" as="geometry" />
        </mxCell>
        <mxCell id="1bnmUAAr6jeucHgLk03l-31" value="" style="shape=singleArrow;direction=south;whiteSpace=wrap;html=1;" vertex="1" parent="1">
          <mxGeometry x="530" y="535" width="60" height="75" as="geometry" />
        </mxCell>
        <mxCell id="1bnmUAAr6jeucHgLk03l-32" value="业务架构/BA" style="text;html=1;strokeColor=none;fillColor=none;align=center;verticalAlign=middle;whiteSpace=wrap;rounded=0;" vertex="1" parent="1">
          <mxGeometry x="360" y="610" width="90" height="30" as="geometry" />
        </mxCell>
        <mxCell id="1bnmUAAr6jeucHgLk03l-33" value="组织结构" style="rounded=0;whiteSpace=wrap;html=1;" vertex="1" parent="1">
          <mxGeometry x="160" y="660" width="90" height="40" as="geometry" />
        </mxCell>
        <mxCell id="1bnmUAAr6jeucHgLk03l-34" value="业务能力" style="rounded=0;whiteSpace=wrap;html=1;" vertex="1" parent="1">
          <mxGeometry x="270" y="660" width="100" height="40" as="geometry" />
        </mxCell>
        <mxCell id="1bnmUAAr6jeucHgLk03l-35" value="商业模式" style="rounded=0;whiteSpace=wrap;html=1;" vertex="1" parent="1">
          <mxGeometry x="384" y="660" width="116" height="40" as="geometry" />
        </mxCell>
        <mxCell id="1bnmUAAr6jeucHgLk03l-36" value="业务流程" style="rounded=0;whiteSpace=wrap;html=1;" vertex="1" parent="1">
          <mxGeometry x="510" y="660" width="120" height="40" as="geometry" />
        </mxCell>
        <mxCell id="1bnmUAAr6jeucHgLk03l-37" value="业务数据" style="rounded=0;whiteSpace=wrap;html=1;" vertex="1" parent="1">
          <mxGeometry x="640" y="660" width="90" height="40" as="geometry" />
        </mxCell>
        <mxCell id="1bnmUAAr6jeucHgLk03l-38" value="" style="rounded=0;whiteSpace=wrap;html=1;" vertex="1" parent="1">
          <mxGeometry x="142.5" y="832.5" width="185" height="240" as="geometry" />
        </mxCell>
        <mxCell id="1bnmUAAr6jeucHgLk03l-39" value="" style="rounded=0;whiteSpace=wrap;html=1;" vertex="1" parent="1">
          <mxGeometry x="337.5" y="832.5" width="185" height="240" as="geometry" />
        </mxCell>
        <mxCell id="1bnmUAAr6jeucHgLk03l-40" value="" style="rounded=0;whiteSpace=wrap;html=1;" vertex="1" parent="1">
          <mxGeometry x="540" y="832.5" width="190" height="240" as="geometry" />
        </mxCell>
        <mxCell id="1bnmUAAr6jeucHgLk03l-41" value="数据架构/DA" style="text;html=1;strokeColor=none;fillColor=none;align=center;verticalAlign=middle;whiteSpace=wrap;rounded=0;" vertex="1" parent="1">
          <mxGeometry x="190" y="830" width="80" height="30" as="geometry" />
        </mxCell>
        <mxCell id="1bnmUAAr6jeucHgLk03l-42" value="数据类型/来源" style="rounded=0;whiteSpace=wrap;html=1;" vertex="1" parent="1">
          <mxGeometry x="170" y="865" width="130" height="30" as="geometry" />
        </mxCell>
        <mxCell id="1bnmUAAr6jeucHgLk03l-43" value="数据存储/分布" style="rounded=0;whiteSpace=wrap;html=1;" vertex="1" parent="1">
          <mxGeometry x="170" y="937.5" width="130" height="30" as="geometry" />
        </mxCell>
        <mxCell id="1bnmUAAr6jeucHgLk03l-44" value="数据流" style="rounded=0;whiteSpace=wrap;html=1;" vertex="1" parent="1">
          <mxGeometry x="170" y="982.5" width="130" height="30" as="geometry" />
        </mxCell>
        <mxCell id="1bnmUAAr6jeucHgLk03l-45" value="数据模型" style="rounded=0;whiteSpace=wrap;html=1;" vertex="1" parent="1">
          <mxGeometry x="170" y="900" width="130" height="30" as="geometry" />
        </mxCell>
        <mxCell id="1bnmUAAr6jeucHgLk03l-46" value="数据管理" style="rounded=0;whiteSpace=wrap;html=1;" vertex="1" parent="1">
          <mxGeometry x="170" y="1025" width="130" height="30" as="geometry" />
        </mxCell>
        <mxCell id="1bnmUAAr6jeucHgLk03l-47" value="应用架构/AA" style="text;html=1;strokeColor=none;fillColor=none;align=center;verticalAlign=middle;whiteSpace=wrap;rounded=0;" vertex="1" parent="1">
          <mxGeometry x="374.34" y="830" width="86" height="30" as="geometry" />
        </mxCell>
        <mxCell id="1bnmUAAr6jeucHgLk03l-48" value="应用功能（应用服务）" style="rounded=0;whiteSpace=wrap;html=1;" vertex="1" parent="1">
          <mxGeometry x="360" y="860" width="120" height="40" as="geometry" />
        </mxCell>
        <mxCell id="1bnmUAAr6jeucHgLk03l-49" value="应用项目（应用组件）" style="rounded=0;whiteSpace=wrap;html=1;" vertex="1" parent="1">
          <mxGeometry x="360" y="910" width="120" height="40" as="geometry" />
        </mxCell>
        <mxCell id="1bnmUAAr6jeucHgLk03l-50" value="应用集成" style="rounded=0;whiteSpace=wrap;html=1;" vertex="1" parent="1">
          <mxGeometry x="360" y="962.5" width="120" height="45" as="geometry" />
        </mxCell>
        <mxCell id="1bnmUAAr6jeucHgLk03l-51" value="研发管理" style="rounded=0;whiteSpace=wrap;html=1;" vertex="1" parent="1">
          <mxGeometry x="360" y="1020" width="120" height="40" as="geometry" />
        </mxCell>
        <mxCell id="1bnmUAAr6jeucHgLk03l-52" value="技术架构" style="text;html=1;strokeColor=none;fillColor=none;align=center;verticalAlign=middle;whiteSpace=wrap;rounded=0;" vertex="1" parent="1">
          <mxGeometry x="605" y="830" width="60" height="30" as="geometry" />
        </mxCell>
        <mxCell id="1bnmUAAr6jeucHgLk03l-53" value="技术集成" style="rounded=0;whiteSpace=wrap;html=1;" vertex="1" parent="1">
          <mxGeometry x="575" y="860" width="120" height="30" as="geometry" />
        </mxCell>
        <mxCell id="1bnmUAAr6jeucHgLk03l-54" value="技术选型" style="rounded=0;whiteSpace=wrap;html=1;" vertex="1" parent="1">
          <mxGeometry x="575" y="895" width="120" height="30" as="geometry" />
        </mxCell>
        <mxCell id="1bnmUAAr6jeucHgLk03l-55" value="分布设计" style="rounded=0;whiteSpace=wrap;html=1;" vertex="1" parent="1">
          <mxGeometry x="575" y="977.5" width="120" height="35" as="geometry" />
        </mxCell>
        <mxCell id="1bnmUAAr6jeucHgLk03l-56" value="物理选型" style="rounded=0;whiteSpace=wrap;html=1;" vertex="1" parent="1">
          <mxGeometry x="575" y="932.5" width="120" height="30" as="geometry" />
        </mxCell>
        <mxCell id="1bnmUAAr6jeucHgLk03l-57" value="选型管理" style="rounded=0;whiteSpace=wrap;html=1;" vertex="1" parent="1">
          <mxGeometry x="575" y="1030" width="120" height="30" as="geometry" />
        </mxCell>
        <mxCell id="1bnmUAAr6jeucHgLk03l-58" value="" style="shape=singleArrow;direction=south;whiteSpace=wrap;html=1;" vertex="1" parent="1">
          <mxGeometry x="530" y="740" width="60" height="80" as="geometry" />
        </mxCell>
        <mxCell id="1bnmUAAr6jeucHgLk03l-59" value="" style="shape=singleArrow;direction=north;whiteSpace=wrap;html=1;" vertex="1" parent="1">
          <mxGeometry x="260" y="740" width="60" height="80" as="geometry" />
        </mxCell>
        <mxCell id="1bnmUAAr6jeucHgLk03l-60" value="" style="shape=singleArrow;direction=north;whiteSpace=wrap;html=1;" vertex="1" parent="1">
          <mxGeometry x="267" y="530" width="60" height="80" as="geometry" />
        </mxCell>
        <mxCell id="1bnmUAAr6jeucHgLk03l-61" value="业务支撑战略" style="text;html=1;strokeColor=none;fillColor=none;align=center;verticalAlign=middle;whiteSpace=wrap;rounded=0;" vertex="1" parent="1">
          <mxGeometry x="180" y="557.5" width="120" height="30" as="geometry" />
        </mxCell>
        <mxCell id="1bnmUAAr6jeucHgLk03l-62" value="技术支撑业务" style="text;html=1;strokeColor=none;fillColor=none;align=center;verticalAlign=middle;whiteSpace=wrap;rounded=0;" vertex="1" parent="1">
          <mxGeometry x="180" y="765" width="100" height="30" as="geometry" />
        </mxCell>
        <mxCell id="1bnmUAAr6jeucHgLk03l-63" value="业务决定技术" style="text;html=1;strokeColor=none;fillColor=none;align=center;verticalAlign=middle;whiteSpace=wrap;rounded=0;" vertex="1" parent="1">
          <mxGeometry x="570" y="765" width="90" height="30" as="geometry" />
        </mxCell>
        <mxCell id="1bnmUAAr6jeucHgLk03l-64" value="战略决定业务" style="text;html=1;strokeColor=none;fillColor=none;align=center;verticalAlign=middle;whiteSpace=wrap;rounded=0;" vertex="1" parent="1">
          <mxGeometry x="570" y="555" width="100" height="30" as="geometry" />
        </mxCell>
      </root>
    </mxGraphModel>
  </diagram>
</mxfile>
